<svg width="21" height="14" viewBox="0 0 21 14" fill="none" xmlns="http://www.w3.org/2000/svg">
<path d="M0.75 6.86262H3.95077C4.08554 6.86105 4.21747 6.82333 4.33305 6.75332C4.44862 6.68332 4.54367 6.58354 4.60846 6.46422L7.23923 1.1523C7.30407 1.02004 7.40744 0.910987 7.53545 0.839771C7.66347 0.768555 7.81001 0.738591 7.95538 0.753904C8.10018 0.763783 8.23838 0.818758 8.35094 0.911251C8.4635 1.00374 8.54487 1.1292 8.58385 1.27034L11.8431 12.2188C11.8858 12.3673 11.9738 12.4985 12.0944 12.5938C12.2151 12.6891 12.3623 12.7438 12.5154 12.75C12.6588 12.7452 12.7977 12.6979 12.9146 12.6139C13.0316 12.5299 13.1215 12.413 13.1731 12.2778L15.1754 7.33479C15.2305 7.19613 15.3253 7.07718 15.4476 6.99309C15.57 6.909 15.7143 6.86358 15.8623 6.86262H19.75" stroke="white" stroke-width="1.5" stroke-linecap="round" stroke-linejoin="round"/>
</svg>
