<svg width="22" height="27" viewBox="0 0 22 27" fill="none" xmlns="http://www.w3.org/2000/svg">
<mask id="path-1-outside-1_230_204" maskUnits="userSpaceOnUse" x="-0.5" y="-0.5" width="23" height="28" fill="black">
<rect fill="white" x="-0.5" y="-0.5" width="23" height="28"/>
<path d="M5.76511 26.4995C5.41247 26.4993 5.07905 26.5014 4.74568 26.4983C4.33084 26.4944 4.04798 26.2133 4.01949 25.8098C3.93942 24.6757 3.84778 23.5423 3.76808 22.4082C3.75762 22.2593 3.69429 22.2256 3.55357 22.2224C3.08212 22.2116 2.79241 21.9636 2.74974 21.5157C2.68937 20.8821 2.64773 20.2468 2.59926 19.6121C2.52679 18.6633 2.45456 17.7145 2.38376 16.7655C2.33824 16.1554 2.29659 15.5451 2.25121 14.935C2.18062 13.986 2.10838 13.0371 2.03674 12.0882C2.02046 11.8726 2.00053 11.6571 1.98801 11.4413C1.96233 10.9981 2.2563 10.6641 2.71558 10.6248C2.84071 10.614 2.8857 10.5688 2.87697 10.4523C2.82939 9.81767 2.78453 9.18283 2.73791 8.54811C2.72298 8.34479 2.70239 8.14182 2.69039 7.93836C2.68339 7.81968 2.62338 7.78105 2.50509 7.78227C2.12044 7.78624 1.73572 7.78468 1.35104 7.78268C0.73083 7.77945 0.38482 7.35047 0.534837 6.77135C0.772362 5.85442 1.01064 4.93766 1.24919 4.02098C1.35748 3.60486 1.6347 3.3939 2.07582 3.39118C2.2874 3.38988 2.49914 3.38547 2.7105 3.3918C2.84879 3.39594 2.91872 3.34566 2.95241 3.21243C3.12532 2.52848 3.3058 1.84631 3.48358 1.16351C3.58753 0.764286 3.79944 0.561213 4.1711 0.509092C4.23416 0.500247 4.29891 0.500145 4.36288 0.500143C8.78042 0.499931 13.198 0.499836 17.6155 0.500735C18.1218 0.500838 18.3835 0.692657 18.5111 1.172C18.6864 1.8301 18.8561 2.48971 19.0154 3.15153C19.0594 3.33443 19.1387 3.41297 19.3399 3.39603C19.5436 3.37888 19.7501 3.38698 19.9551 3.39298C20.3467 3.40444 20.6303 3.59729 20.7252 3.95189C20.9846 4.92102 21.2384 5.89174 21.4769 6.86582C21.5962 7.35314 21.2402 7.76963 20.7171 7.78114C20.3326 7.78961 19.9473 7.79303 19.5633 7.77723C19.3688 7.76924 19.2992 7.84043 19.2891 8.01449C19.2699 8.34135 19.2414 8.66768 19.218 8.99431C19.1799 9.52368 19.1429 10.0531 19.1069 10.5605C19.1518 10.6283 19.2 10.6188 19.2434 10.6217C19.7265 10.6546 20.0323 10.9756 20.0054 11.447C19.9751 11.9775 19.9271 12.5071 19.8864 13.037C19.839 13.6531 19.7909 14.269 19.7436 14.885C19.681 15.6982 19.6164 16.5112 19.5572 17.3245C19.4997 18.1135 19.4507 18.903 19.3931 19.6919C19.3466 20.3267 19.2987 20.9616 19.2399 21.5954C19.2073 21.9473 18.8767 22.2197 18.4767 22.2204C18.2965 22.2207 18.232 22.2729 18.2216 22.4474C18.1851 23.0578 18.1336 23.6675 18.0883 24.2774C18.0485 24.8135 18.0164 25.3501 17.9677 25.8854C17.9337 26.2588 17.6292 26.4982 17.2096 26.4985C15.2669 26.4996 13.3242 26.4991 11.3815 26.4992C9.5158 26.4993 7.65007 26.4994 5.76511 26.4995ZM9.93953 20.7268C10.5678 20.7268 11.1961 20.7268 11.8243 20.7268C13.7221 20.7269 15.6199 20.7248 17.5176 20.7304C17.6945 20.7309 17.7706 20.6851 17.7803 20.5083C17.8019 20.1137 17.8425 19.7201 17.8709 19.3259C17.9401 18.3646 18.0049 17.4031 18.0749 16.4419C18.1754 15.0617 18.2762 13.6816 18.3847 12.302C18.3984 12.1272 18.344 12.1034 18.1737 12.1057C17.2828 12.1176 16.3914 12.1248 15.5006 12.1086C15.0113 12.0997 14.6995 11.7618 14.7183 11.3222C14.7361 10.9032 15.0658 10.6239 15.5477 10.6225C16.1632 10.6208 16.7788 10.6153 17.3941 10.624C17.5873 10.6267 17.6665 10.5618 17.6793 10.3761C17.7356 9.55666 17.7998 8.73769 17.8638 7.91873C17.8704 7.83408 17.8468 7.78652 17.7541 7.78478C17.6964 7.7837 17.6387 7.78281 17.581 7.78281C13.2598 7.78302 8.93856 7.78333 4.61732 7.78366C4.50833 7.78367 4.39926 7.78649 4.29036 7.78354C4.1643 7.78014 4.12813 7.8293 4.13817 7.95361C4.20236 8.74809 4.25973 9.54311 4.31543 10.3382C4.33439 10.6088 4.3428 10.6219 4.61373 10.6218C7.38984 10.6217 10.1659 10.6216 12.9421 10.6217C13.0703 10.6217 13.1991 10.6157 13.3265 10.6259C13.8626 10.6685 14.1827 11.2467 13.9313 11.7053C13.7504 12.0355 13.4455 12.1183 13.0918 12.118C10.0144 12.1153 6.93703 12.1134 3.85964 12.111C3.62989 12.1109 3.60526 12.1297 3.61952 12.355C3.65697 12.9469 3.69905 13.5385 3.74023 14.1302C3.77971 14.6973 3.81853 15.2645 3.86096 15.8314C3.9209 16.6322 3.98401 17.4328 4.04553 18.2336C4.10327 18.9852 4.16702 19.7364 4.21402 20.4886C4.22626 20.6847 4.30497 20.7308 4.49631 20.7302C6.29787 20.7241 8.09947 20.7267 9.93953 20.7268ZM5.44619 22.2246C5.20016 22.2295 5.19447 22.2425 5.21027 22.4412C5.27392 23.2419 5.33469 24.0427 5.38946 24.844C5.40745 25.1071 5.39766 25.108 5.67326 25.108C9.2178 25.1081 12.7623 25.1081 16.3069 25.1081C16.3582 25.1081 16.4094 25.1072 16.4607 25.1069C16.5558 25.1065 16.5951 25.0595 16.6015 24.9689C16.6629 24.1064 16.7261 23.244 16.7907 22.3817C16.7992 22.2685 16.7494 22.222 16.6355 22.2261C16.5651 22.2286 16.4945 22.2255 16.424 22.2255C12.7769 22.2252 9.12983 22.2249 5.44619 22.2246ZM4.63013 4.89179C4.12999 4.89172 3.62984 4.8916 3.12969 4.89159C2.6238 4.89158 2.62361 4.89158 2.50032 5.36472C2.42436 5.6562 2.3491 5.94784 2.26746 6.26284C8.09843 6.26284 13.8993 6.26284 19.7263 6.26284C19.6312 5.88634 19.5426 5.53376 19.4529 5.18143C19.379 4.89086 19.3784 4.8908 19.0768 4.89082C14.274 4.89112 9.47132 4.89148 4.63013 4.89179ZM13.0174 3.39202C14.4956 3.39202 15.9738 3.39202 17.4772 3.39202C17.4573 3.29106 17.4467 3.21922 17.4288 3.14915C17.3472 2.83141 17.2569 2.51559 17.1836 2.19611C17.1502 2.05011 17.0841 1.99474 16.9244 1.99488C12.9704 1.99848 9.01636 1.99838 5.06236 1.99463C4.90794 1.99448 4.84753 2.05437 4.81565 2.18854C4.74418 2.48937 4.66181 2.78779 4.58459 3.08735C4.50824 3.38352 4.51514 3.39171 4.82744 3.39172C7.54462 3.3918 10.2618 3.3919 13.0174 3.39202Z"/>
</mask>
<path d="M5.76511 26.4995C5.41247 26.4993 5.07905 26.5014 4.74568 26.4983C4.33084 26.4944 4.04798 26.2133 4.01949 25.8098C3.93942 24.6757 3.84778 23.5423 3.76808 22.4082C3.75762 22.2593 3.69429 22.2256 3.55357 22.2224C3.08212 22.2116 2.79241 21.9636 2.74974 21.5157C2.68937 20.8821 2.64773 20.2468 2.59926 19.6121C2.52679 18.6633 2.45456 17.7145 2.38376 16.7655C2.33824 16.1554 2.29659 15.5451 2.25121 14.935C2.18062 13.986 2.10838 13.0371 2.03674 12.0882C2.02046 11.8726 2.00053 11.6571 1.98801 11.4413C1.96233 10.9981 2.2563 10.6641 2.71558 10.6248C2.84071 10.614 2.8857 10.5688 2.87697 10.4523C2.82939 9.81767 2.78453 9.18283 2.73791 8.54811C2.72298 8.34479 2.70239 8.14182 2.69039 7.93836C2.68339 7.81968 2.62338 7.78105 2.50509 7.78227C2.12044 7.78624 1.73572 7.78468 1.35104 7.78268C0.73083 7.77945 0.38482 7.35047 0.534837 6.77135C0.772362 5.85442 1.01064 4.93766 1.24919 4.02098C1.35748 3.60486 1.6347 3.3939 2.07582 3.39118C2.2874 3.38988 2.49914 3.38547 2.7105 3.3918C2.84879 3.39594 2.91872 3.34566 2.95241 3.21243C3.12532 2.52848 3.3058 1.84631 3.48358 1.16351C3.58753 0.764286 3.79944 0.561213 4.1711 0.509092C4.23416 0.500247 4.29891 0.500145 4.36288 0.500143C8.78042 0.499931 13.198 0.499836 17.6155 0.500735C18.1218 0.500838 18.3835 0.692657 18.5111 1.172C18.6864 1.8301 18.8561 2.48971 19.0154 3.15153C19.0594 3.33443 19.1387 3.41297 19.3399 3.39603C19.5436 3.37888 19.7501 3.38698 19.9551 3.39298C20.3467 3.40444 20.6303 3.59729 20.7252 3.95189C20.9846 4.92102 21.2384 5.89174 21.4769 6.86582C21.5962 7.35314 21.2402 7.76963 20.7171 7.78114C20.3326 7.78961 19.9473 7.79303 19.5633 7.77723C19.3688 7.76924 19.2992 7.84043 19.2891 8.01449C19.2699 8.34135 19.2414 8.66768 19.218 8.99431C19.1799 9.52368 19.1429 10.0531 19.1069 10.5605C19.1518 10.6283 19.2 10.6188 19.2434 10.6217C19.7265 10.6546 20.0323 10.9756 20.0054 11.447C19.9751 11.9775 19.9271 12.5071 19.8864 13.037C19.839 13.6531 19.7909 14.269 19.7436 14.885C19.681 15.6982 19.6164 16.5112 19.5572 17.3245C19.4997 18.1135 19.4507 18.903 19.3931 19.6919C19.3466 20.3267 19.2987 20.9616 19.2399 21.5954C19.2073 21.9473 18.8767 22.2197 18.4767 22.2204C18.2965 22.2207 18.232 22.2729 18.2216 22.4474C18.1851 23.0578 18.1336 23.6675 18.0883 24.2774C18.0485 24.8135 18.0164 25.3501 17.9677 25.8854C17.9337 26.2588 17.6292 26.4982 17.2096 26.4985C15.2669 26.4996 13.3242 26.4991 11.3815 26.4992C9.5158 26.4993 7.65007 26.4994 5.76511 26.4995ZM9.93953 20.7268C10.5678 20.7268 11.1961 20.7268 11.8243 20.7268C13.7221 20.7269 15.6199 20.7248 17.5176 20.7304C17.6945 20.7309 17.7706 20.6851 17.7803 20.5083C17.8019 20.1137 17.8425 19.7201 17.8709 19.3259C17.9401 18.3646 18.0049 17.4031 18.0749 16.4419C18.1754 15.0617 18.2762 13.6816 18.3847 12.302C18.3984 12.1272 18.344 12.1034 18.1737 12.1057C17.2828 12.1176 16.3914 12.1248 15.5006 12.1086C15.0113 12.0997 14.6995 11.7618 14.7183 11.3222C14.7361 10.9032 15.0658 10.6239 15.5477 10.6225C16.1632 10.6208 16.7788 10.6153 17.3941 10.624C17.5873 10.6267 17.6665 10.5618 17.6793 10.3761C17.7356 9.55666 17.7998 8.73769 17.8638 7.91873C17.8704 7.83408 17.8468 7.78652 17.7541 7.78478C17.6964 7.7837 17.6387 7.78281 17.581 7.78281C13.2598 7.78302 8.93856 7.78333 4.61732 7.78366C4.50833 7.78367 4.39926 7.78649 4.29036 7.78354C4.1643 7.78014 4.12813 7.8293 4.13817 7.95361C4.20236 8.74809 4.25973 9.54311 4.31543 10.3382C4.33439 10.6088 4.3428 10.6219 4.61373 10.6218C7.38984 10.6217 10.1659 10.6216 12.9421 10.6217C13.0703 10.6217 13.1991 10.6157 13.3265 10.6259C13.8626 10.6685 14.1827 11.2467 13.9313 11.7053C13.7504 12.0355 13.4455 12.1183 13.0918 12.118C10.0144 12.1153 6.93703 12.1134 3.85964 12.111C3.62989 12.1109 3.60526 12.1297 3.61952 12.355C3.65697 12.9469 3.69905 13.5385 3.74023 14.1302C3.77971 14.6973 3.81853 15.2645 3.86096 15.8314C3.9209 16.6322 3.98401 17.4328 4.04553 18.2336C4.10327 18.9852 4.16702 19.7364 4.21402 20.4886C4.22626 20.6847 4.30497 20.7308 4.49631 20.7302C6.29787 20.7241 8.09947 20.7267 9.93953 20.7268ZM5.44619 22.2246C5.20016 22.2295 5.19447 22.2425 5.21027 22.4412C5.27392 23.2419 5.33469 24.0427 5.38946 24.844C5.40745 25.1071 5.39766 25.108 5.67326 25.108C9.2178 25.1081 12.7623 25.1081 16.3069 25.1081C16.3582 25.1081 16.4094 25.1072 16.4607 25.1069C16.5558 25.1065 16.5951 25.0595 16.6015 24.9689C16.6629 24.1064 16.7261 23.244 16.7907 22.3817C16.7992 22.2685 16.7494 22.222 16.6355 22.2261C16.5651 22.2286 16.4945 22.2255 16.424 22.2255C12.7769 22.2252 9.12983 22.2249 5.44619 22.2246ZM4.63013 4.89179C4.12999 4.89172 3.62984 4.8916 3.12969 4.89159C2.6238 4.89158 2.62361 4.89158 2.50032 5.36472C2.42436 5.6562 2.3491 5.94784 2.26746 6.26284C8.09843 6.26284 13.8993 6.26284 19.7263 6.26284C19.6312 5.88634 19.5426 5.53376 19.4529 5.18143C19.379 4.89086 19.3784 4.8908 19.0768 4.89082C14.274 4.89112 9.47132 4.89148 4.63013 4.89179ZM13.0174 3.39202C14.4956 3.39202 15.9738 3.39202 17.4772 3.39202C17.4573 3.29106 17.4467 3.21922 17.4288 3.14915C17.3472 2.83141 17.2569 2.51559 17.1836 2.19611C17.1502 2.05011 17.0841 1.99474 16.9244 1.99488C12.9704 1.99848 9.01636 1.99838 5.06236 1.99463C4.90794 1.99448 4.84753 2.05437 4.81565 2.18854C4.74418 2.48937 4.66181 2.78779 4.58459 3.08735C4.50824 3.38352 4.51514 3.39171 4.82744 3.39172C7.54462 3.3918 10.2618 3.3919 13.0174 3.39202Z" fill="#744236"/>
<path d="M5.76511 26.4995C5.41247 26.4993 5.07905 26.5014 4.74568 26.4983C4.33084 26.4944 4.04798 26.2133 4.01949 25.8098C3.93942 24.6757 3.84778 23.5423 3.76808 22.4082C3.75762 22.2593 3.69429 22.2256 3.55357 22.2224C3.08212 22.2116 2.79241 21.9636 2.74974 21.5157C2.68937 20.8821 2.64773 20.2468 2.59926 19.6121C2.52679 18.6633 2.45456 17.7145 2.38376 16.7655C2.33824 16.1554 2.29659 15.5451 2.25121 14.935C2.18062 13.986 2.10838 13.0371 2.03674 12.0882C2.02046 11.8726 2.00053 11.6571 1.98801 11.4413C1.96233 10.9981 2.2563 10.6641 2.71558 10.6248C2.84071 10.614 2.8857 10.5688 2.87697 10.4523C2.82939 9.81767 2.78453 9.18283 2.73791 8.54811C2.72298 8.34479 2.70239 8.14182 2.69039 7.93836C2.68339 7.81968 2.62338 7.78105 2.50509 7.78227C2.12044 7.78624 1.73572 7.78468 1.35104 7.78268C0.73083 7.77945 0.38482 7.35047 0.534837 6.77135C0.772362 5.85442 1.01064 4.93766 1.24919 4.02098C1.35748 3.60486 1.6347 3.3939 2.07582 3.39118C2.2874 3.38988 2.49914 3.38547 2.7105 3.3918C2.84879 3.39594 2.91872 3.34566 2.95241 3.21243C3.12532 2.52848 3.3058 1.84631 3.48358 1.16351C3.58753 0.764286 3.79944 0.561213 4.1711 0.509092C4.23416 0.500247 4.29891 0.500145 4.36288 0.500143C8.78042 0.499931 13.198 0.499836 17.6155 0.500735C18.1218 0.500838 18.3835 0.692657 18.5111 1.172C18.6864 1.8301 18.8561 2.48971 19.0154 3.15153C19.0594 3.33443 19.1387 3.41297 19.3399 3.39603C19.5436 3.37888 19.7501 3.38698 19.9551 3.39298C20.3467 3.40444 20.6303 3.59729 20.7252 3.95189C20.9846 4.92102 21.2384 5.89174 21.4769 6.86582C21.5962 7.35314 21.2402 7.76963 20.7171 7.78114C20.3326 7.78961 19.9473 7.79303 19.5633 7.77723C19.3688 7.76924 19.2992 7.84043 19.2891 8.01449C19.2699 8.34135 19.2414 8.66768 19.218 8.99431C19.1799 9.52368 19.1429 10.0531 19.1069 10.5605C19.1518 10.6283 19.2 10.6188 19.2434 10.6217C19.7265 10.6546 20.0323 10.9756 20.0054 11.447C19.9751 11.9775 19.9271 12.5071 19.8864 13.037C19.839 13.6531 19.7909 14.269 19.7436 14.885C19.681 15.6982 19.6164 16.5112 19.5572 17.3245C19.4997 18.1135 19.4507 18.903 19.3931 19.6919C19.3466 20.3267 19.2987 20.9616 19.2399 21.5954C19.2073 21.9473 18.8767 22.2197 18.4767 22.2204C18.2965 22.2207 18.232 22.2729 18.2216 22.4474C18.1851 23.0578 18.1336 23.6675 18.0883 24.2774C18.0485 24.8135 18.0164 25.3501 17.9677 25.8854C17.9337 26.2588 17.6292 26.4982 17.2096 26.4985C15.2669 26.4996 13.3242 26.4991 11.3815 26.4992C9.5158 26.4993 7.65007 26.4994 5.76511 26.4995ZM9.93953 20.7268C10.5678 20.7268 11.1961 20.7268 11.8243 20.7268C13.7221 20.7269 15.6199 20.7248 17.5176 20.7304C17.6945 20.7309 17.7706 20.6851 17.7803 20.5083C17.8019 20.1137 17.8425 19.7201 17.8709 19.3259C17.9401 18.3646 18.0049 17.4031 18.0749 16.4419C18.1754 15.0617 18.2762 13.6816 18.3847 12.302C18.3984 12.1272 18.344 12.1034 18.1737 12.1057C17.2828 12.1176 16.3914 12.1248 15.5006 12.1086C15.0113 12.0997 14.6995 11.7618 14.7183 11.3222C14.7361 10.9032 15.0658 10.6239 15.5477 10.6225C16.1632 10.6208 16.7788 10.6153 17.3941 10.624C17.5873 10.6267 17.6665 10.5618 17.6793 10.3761C17.7356 9.55666 17.7998 8.73769 17.8638 7.91873C17.8704 7.83408 17.8468 7.78652 17.7541 7.78478C17.6964 7.7837 17.6387 7.78281 17.581 7.78281C13.2598 7.78302 8.93856 7.78333 4.61732 7.78366C4.50833 7.78367 4.39926 7.78649 4.29036 7.78354C4.1643 7.78014 4.12813 7.8293 4.13817 7.95361C4.20236 8.74809 4.25973 9.54311 4.31543 10.3382C4.33439 10.6088 4.3428 10.6219 4.61373 10.6218C7.38984 10.6217 10.1659 10.6216 12.9421 10.6217C13.0703 10.6217 13.1991 10.6157 13.3265 10.6259C13.8626 10.6685 14.1827 11.2467 13.9313 11.7053C13.7504 12.0355 13.4455 12.1183 13.0918 12.118C10.0144 12.1153 6.93703 12.1134 3.85964 12.111C3.62989 12.1109 3.60526 12.1297 3.61952 12.355C3.65697 12.9469 3.69905 13.5385 3.74023 14.1302C3.77971 14.6973 3.81853 15.2645 3.86096 15.8314C3.9209 16.6322 3.98401 17.4328 4.04553 18.2336C4.10327 18.9852 4.16702 19.7364 4.21402 20.4886C4.22626 20.6847 4.30497 20.7308 4.49631 20.7302C6.29787 20.7241 8.09947 20.7267 9.93953 20.7268ZM5.44619 22.2246C5.20016 22.2295 5.19447 22.2425 5.21027 22.4412C5.27392 23.2419 5.33469 24.0427 5.38946 24.844C5.40745 25.1071 5.39766 25.108 5.67326 25.108C9.2178 25.1081 12.7623 25.1081 16.3069 25.1081C16.3582 25.1081 16.4094 25.1072 16.4607 25.1069C16.5558 25.1065 16.5951 25.0595 16.6015 24.9689C16.6629 24.1064 16.7261 23.244 16.7907 22.3817C16.7992 22.2685 16.7494 22.222 16.6355 22.2261C16.5651 22.2286 16.4945 22.2255 16.424 22.2255C12.7769 22.2252 9.12983 22.2249 5.44619 22.2246ZM4.63013 4.89179C4.12999 4.89172 3.62984 4.8916 3.12969 4.89159C2.6238 4.89158 2.62361 4.89158 2.50032 5.36472C2.42436 5.6562 2.3491 5.94784 2.26746 6.26284C8.09843 6.26284 13.8993 6.26284 19.7263 6.26284C19.6312 5.88634 19.5426 5.53376 19.4529 5.18143C19.379 4.89086 19.3784 4.8908 19.0768 4.89082C14.274 4.89112 9.47132 4.89148 4.63013 4.89179ZM13.0174 3.39202C14.4956 3.39202 15.9738 3.39202 17.4772 3.39202C17.4573 3.29106 17.4467 3.21922 17.4288 3.14915C17.3472 2.83141 17.2569 2.51559 17.1836 2.19611C17.1502 2.05011 17.0841 1.99474 16.9244 1.99488C12.9704 1.99848 9.01636 1.99838 5.06236 1.99463C4.90794 1.99448 4.84753 2.05437 4.81565 2.18854C4.74418 2.48937 4.66181 2.78779 4.58459 3.08735C4.50824 3.38352 4.51514 3.39171 4.82744 3.39172C7.54462 3.3918 10.2618 3.3919 13.0174 3.39202Z" stroke="#744236" mask="url(#path-1-outside-1_230_204)"/>
</svg>
