<svg width="23" height="16" viewBox="0 0 23 16" fill="none" xmlns="http://www.w3.org/2000/svg">
<path d="M8.91667 7.75C8.91667 8.36884 9.1625 8.96233 9.60008 9.39992C10.0377 9.8375 10.6312 10.0833 11.25 10.0833C11.8688 10.0833 12.4623 9.8375 12.8999 9.39992C13.3375 8.96233 13.5833 8.36884 13.5833 7.75C13.5833 7.13116 13.3375 6.53767 12.8999 6.10008C12.4623 5.6625 11.8688 5.41667 11.25 5.41667C10.6312 5.41667 10.0377 5.6625 9.60008 6.10008C9.1625 6.53767 8.91667 7.13116 8.91667 7.75Z" stroke="#744236" stroke-width="1.5" stroke-linecap="round" stroke-linejoin="round"/>
<path d="M21.75 7.75C18.95 12.4167 15.45 14.75 11.25 14.75C7.05 14.75 3.55 12.4167 0.75 7.75C3.55 3.08333 7.05 0.75 11.25 0.75C15.45 0.75 18.95 3.08333 21.75 7.75Z" stroke="#744236" stroke-width="1.5" stroke-linecap="round" stroke-linejoin="round"/>
</svg>
